<?xml version="1.0" encoding="utf-8"?>
<!-- Generator: Adobe Illustrator 16.0.0, SVG Export Plug-In . SVG Version: 6.00 Build 0)  -->
<!DOCTYPE svg PUBLIC "-//W3C//DTD SVG 1.1//EN" "http://www.w3.org/Graphics/SVG/1.1/DTD/svg11.dtd">
<svg version="1.1" id="Layer_1" xmlns="http://www.w3.org/2000/svg" xmlns:xlink="http://www.w3.org/1999/xlink" x="0px" y="0px"
	 width="191.5px" height="195.5px" viewBox="863.25 3.25 191.5 195.5" enable-background="new 863.25 3.25 191.5 195.5"
	 xml:space="preserve">
<title></title>
<path fill="#484949" d="M1017,13.834H903c-14.353,0.016-25.983,11.647-26,26v118c0.019,16.561,13.439,29.981,30,30h106
	c16.562-0.019,29.982-13.439,30-30v-118C1042.984,25.481,1031.353,13.85,1017,13.834z M903,25.834h114
	c7.729,0.009,13.991,6.272,14,14v102.111c-0.01,8.975-7.283,16.248-16.258,16.258H905.26c-8.976-0.01-16.249-7.283-16.26-16.258
	V39.834C889.01,32.106,895.272,25.843,903,25.834z M1013,175.834H907c-9.936-0.012-17.988-8.063-18-18v-0.736
	c4.195,4.527,10.087,7.103,16.26,7.105h109.482c6.172-0.003,12.063-2.578,16.258-7.105v0.736
	C1030.989,167.771,1022.937,175.822,1013,175.834z"/>
<g>
	<path fill-rule="evenodd" clip-rule="evenodd" fill="#484949" stroke="#484949" stroke-width="0.4274" stroke-miterlimit="10" d="
		M980.285,97.238c2.962-3.97,4.716-8.895,4.716-14.229c0-13.152-10.662-23.815-23.814-23.815s-23.814,10.663-23.814,23.815
		c0,4.617,1.315,8.928,3.589,12.576c6.238,10.012,9.227,10.248,14.549,23.035h0.247c3.684-7.235,4.877-10.698,0.852-18.907
		c-2.426-4.945-5.649-10.176-6.327-14.852c-0.977-6.725,5.005-11.446,10.905-11.542c5.9,0.096,11.882,4.817,10.906,11.542
		c-0.679,4.676-3.902,9.906-6.328,14.852c-4.024,8.209-2.832,11.672,0.853,18.907h0.174
		C971.821,107.016,973.254,106.655,980.285,97.238z"/>
	<path fill-rule="evenodd" clip-rule="evenodd" fill="#484949" stroke="#484949" stroke-width="0.4274" stroke-miterlimit="10" d="
		M964.379,78.22c-1.151-0.938-2.649-1.486-4.14-1.511c-3.321,0.054-6.689,2.713-6.141,6.499c0.158,1.084,0.559,2.221,1.07,3.378
		c-0.091-0.357-0.162-0.711-0.213-1.06c-0.648-4.462,3.319-7.595,7.235-7.657C962.928,77.88,963.669,78.002,964.379,78.22z"/>
	<path fill-rule="evenodd" clip-rule="evenodd" fill="#484949" stroke="#484949" stroke-width="0.4274" stroke-miterlimit="10" d="
		M953.714,139.895h1.465c0.847,1.501,3.217,2.58,6.008,2.58c2.792,0,5.162-1.079,6.008-2.58h1.466c0.736,0,1.338-0.603,1.338-1.338
		v-0.973h1.031c0.955,0,1.733-0.779,1.733-1.732l0,0c0-0.953-0.778-1.732-1.733-1.732h-1.031v-2.312h1.031
		c0.955,0,1.733-0.778,1.733-1.731l0,0c0-0.954-0.778-1.733-1.733-1.733h-1.031v-2.31h1.031c0.955,0,1.733-0.779,1.733-1.732l0,0
		c0-0.953-0.778-1.732-1.733-1.732h-1.031h-17.622h-1.032c-0.953,0-1.732,0.779-1.732,1.732l0,0c0,0.953,0.779,1.732,1.732,1.732
		h1.032v2.31h-1.032c-0.953,0-1.732,0.779-1.732,1.733l0,0c0,0.953,0.779,1.731,1.732,1.731h1.032v2.312h-1.032
		c-0.953,0-1.732,0.779-1.732,1.732l0,0c0,0.953,0.779,1.732,1.732,1.732h1.032v0.973
		C952.376,139.292,952.978,139.895,953.714,139.895z"/>
</g>
<g>
	<g>
		<path fill="#484949" stroke="#484949" stroke-width="1.2822" stroke-miterlimit="10" d="M918.186,58.169
			c2.026-3.232,4.574-6.184,7.57-8.79c3.91-3.33,7.765-3.009,9.208-1.131c0.756,0.911,1.175,2.46-0.334,4.613
			c1.549-0.569,4.402-1.308,6.085,1.167c1.557,2.348,0.704,5.276-2.396,7.883c-2.031,1.734-3.826,3.709-5.337,5.896
			C928.439,64.383,923.507,61.156,918.186,58.169z M926.539,59.589c1.155-1.457,2.43-2.831,3.814-4.113
			c2.207-2.025,3.344-3.583,1.855-5.21c-1.102-1.204-3.124-1.103-6.018,1.541c-1.546,1.443-2.955,2.988-4.22,4.623
			C923.532,57.463,925.053,58.517,926.539,59.589z M932.957,64.534c1.177-1.442,2.48-2.781,3.903-4.008
			c2.073-1.766,2.566-3.469,1.354-5.015c-1.52-1.942-4.228-0.717-6.049,0.953c-1.479,1.325-2.834,2.755-4.049,4.282
			C929.781,61.985,931.392,63.249,932.957,64.534z"/>
		<path fill="#484949" stroke="#484949" stroke-width="1.2822" stroke-miterlimit="10" d="M947.87,54.009
			c3.241-1.212,6.7-2.023,10.229-2.413c0.093,0.661,0.186,1.322,0.274,1.983c-4.221,0.466-8.329,1.574-12.069,3.282
			c-2.687-5.015-5.67-9.968-8.97-14.844c1.185-0.54,2.4-1.044,3.644-1.507C943.488,44.969,945.781,49.472,947.87,54.009z"/>
		<path fill="#484949" stroke="#484949" stroke-width="1.2822" stroke-miterlimit="10" d="M969.532,54.274
			c-6.947-0.966-9.845-5.447-10.346-9.153c-0.559-3.354,2.308-9.621,14.187-8.118c11.654,2.176,11.3,8.861,9.438,11.849
			C980.778,52.172,976.413,55.508,969.532,54.274z M972.894,38.965c-6.509-0.967-10.41,2.144-10.221,6.021
			c0.151,3.954,2.935,6.648,7.254,7.321c4.322,0.696,7.922-0.99,9.738-4.645C981.477,44.09,979.376,40.03,972.894,38.965z"/>
		<path fill="#484949" stroke="#484949" stroke-width="1.2822" stroke-miterlimit="10" d="M994.965,55.766
			c2.48,2.248,4.607,4.79,6.318,7.579c-2.699,1.653-5.288,3.373-7.77,5.151c-0.295-0.453-0.597-0.898-0.916-1.335
			c0.472-0.612,0.944-1.23,1.414-1.853c-2.104-0.073-4.344-1.101-6.224-2.74c-2.363-2.043-3.086-3.688-3.44-4.946
			c-1.178-3.588,0.09-6.146,1.172-7.691c2.01-3.532,9.25-6.078,16.175-0.024c3.869,3.45,5.063,9.055,1.859,11.619
			c-0.541-0.875-1.124-1.728-1.744-2.555c2.062-2.564,0.236-5.876-1.946-7.787c-3.539-3.232-8.835-3.289-11.535,0.42
			c-2.204,2.925-2.858,6.355,0.961,9.614c0.729,0.644,1.889,1.632,3.61,2.062c2.049,0.519,3.559,0.003,5.113-1.107
			c-1.338-1.8-2.86-3.471-4.554-5.001C993.955,56.701,994.46,56.232,994.965,55.766z"/>
	</g>
</g>
</svg>
