<?xml version="1.0" ?><svg data-name="Layer 1" id="Layer_1" viewBox="0 0 100 100" xmlns="http://www.w3.org/2000/svg"><title/><g><path d="M78.5,6.5h-57a13.015,13.015,0,0,0-13,13v59a15.0164,15.0164,0,0,0,15,15h53a15.0164,15.0164,0,0,0,15-15v-59A13.01505,13.01505,0,0,0,78.5,6.5Zm-57,6h57a7.00849,7.00849,0,0,1,7,7V70.55566a8.13878,8.13878,0,0,1-8.12988,8.12891H22.62988A8.13878,8.13878,0,0,1,14.5,70.55566V19.5A7.00849,7.00849,0,0,1,21.5,12.5Zm55,75h-53a9.00984,9.00984,0,0,1-9-9V78.13134a11.08984,11.08984,0,0,0,8.12988,3.55322H77.37012A11.08984,11.08984,0,0,0,85.5,78.13134V78.5A9.00984,9.00984,0,0,1,76.5,87.5Z" fill="#484949"/><rect fill="#484949" height="27.73096" width="9.21918" x="29.04321" y="37.61028"/><path d="M33.593,33.822h0.05963c3.21454,0,5.21545-2.13086,5.21545-4.79169A4.79181,4.79181,0,0,0,34.0898,24.225q-0.18755-.00053-0.37472.01361c-3.15424,0-5.21509,2.07373-5.21509,4.79169a4.77124,4.77124,0,0,0,4.73982,4.80246Q33.41654,33.83393,33.593,33.822Z" fill="#484949"/><path d="M52.58014,65.34124V49.8543a6.29925,6.29925,0,0,1,.304-2.25012,5.04427,5.04427,0,0,1,4.72919-3.37036c3.33386,0,4.66943,2.54388,4.66943,6.2702V65.34124H71.5V49.43871c0-8.518-4.54779-12.48053-10.61243-12.48053a9.15544,9.15544,0,0,0-8.30725,4.57837V37.61028H43.36346c0.12225,2.6012,0,27.731,0,27.731h9.21667v0Z" fill="#484949"/></g></svg>