<?xml version="1.0" ?><svg data-name="Layer 1" id="Layer_1" viewBox="0 0 100 100" xmlns="http://www.w3.org/2000/svg"><title/><g><path d="M78.5,6.5h-57a13.015,13.015,0,0,0-13,13v59a15.0164,15.0164,0,0,0,15,15h53a15.0164,15.0164,0,0,0,15-15v-59A13.01505,13.01505,0,0,0,78.5,6.5Zm-57,6h57a7.00849,7.00849,0,0,1,7,7V70.55566a8.13878,8.13878,0,0,1-8.12988,8.12891H22.62988A8.13878,8.13878,0,0,1,14.5,70.55566V19.5A7.00849,7.00849,0,0,1,21.5,12.5Zm55,75h-53a9.00984,9.00984,0,0,1-9-9V78.13134a11.08984,11.08984,0,0,0,8.12988,3.55322H77.37012A11.08984,11.08984,0,0,0,85.5,78.13134V78.5A9.00984,9.00984,0,0,1,76.5,87.5Z" fill="#484949"/><path d="M50.06653,38.68713a3.5067,3.5067,0,0,0,2.9953-1.4519,5.53885,5.53885,0,0,0,.79456-3.328V28.95257a5.56442,5.56442,0,0,0-.79456-3.33636,3.80276,3.80276,0,0,0-5.978,0,5.50317,5.50317,0,0,0-.80292,3.33636v4.95465a5.47829,5.47829,0,0,0,.80292,3.328A3.49291,3.49291,0,0,0,50.06653,38.68713Zm-1.223-10.25043c0-1.30957.39612-1.96356,1.223-1.96356,0.82715,0,1.22308.654,1.22308,1.96356v5.95721c0,1.30994-.39612,1.95941-1.22308,1.95941s-1.223-.64948-1.223-1.95941V28.4367Z" fill="#484949"/><path d="M57.84589,38.68713a4.124,4.124,0,0,0,2.93286-1.739v1.5434h2.56256V24.33489H60.77875V35.1552a2.25128,2.25128,0,0,1-1.62244,1.19812,0.58331,0.58331,0,0,1-.59906-0.56712q-0.00043-.016,0-0.03194a5.89209,5.89209,0,0,1-.03326-0.99841v-10.421H55.96552v11.1947a7.11036,7.11036,0,0,0,.233,2.105A1.56786,1.56786,0,0,0,57.84589,38.68713Z" fill="#484949"/><path d="M39.99091,30.79546v7.69611h2.84546V30.79546l3.41956-11.29871H43.38135l-1.9386,7.459-2.02594-7.459H36.42572c0.5993,1.7619,1.22632,3.52917,1.82623,5.29156A46.82349,46.82349,0,0,1,39.99091,30.79546Z" fill="#484949"/><path d="M34.275,69.50488a133.04842,133.04842,0,0,0,14.7724.57825h1.90527a133.04839,133.04839,0,0,0,14.7724-.57825,5.313,5.313,0,0,0,4.54279-4.131A44.3923,44.3923,0,0,0,71,55.58526V55.448a45.00133,45.00133,0,0,0-.72388-9.9259,5.308,5.308,0,0,0-4.53857-4.13092,133.03616,133.03616,0,0,0-14.75995-.58246H49.039a132.98873,132.98873,0,0,0-14.75989.58246,5.30817,5.30817,0,0,0-4.53864,4.13092A45.00859,45.00859,0,0,0,29,55.448v0.23712a43.907,43.907,0,0,0,.73218,9.68878A5.313,5.313,0,0,0,34.275,69.50488ZM60.27118,55.38976a5.45234,5.45234,0,0,1,.7821-3.299,3.60427,3.60427,0,0,1,3.0368-1.43524h0.00006a3.53353,3.53353,0,0,1,2.99939,1.43524,5.50547,5.50547,0,0,1,.7821,3.299V58.2893h-5.0753v2.48358c0,1.29645.42181,1.9469,1.29382,1.9469A1.09625,1.09625,0,0,0,65.23,61.70055a16.689,16.689,0,0,0,.05408-1.72223h2.58759v0.37439c0,0.81641-.03027,1.38171-0.05408,1.63489a3.57352,3.57352,0,0,1-.59076,1.51843,3.51226,3.51226,0,0,1-3.07013,1.51843,3.6382,3.6382,0,0,1-3.07428-1.43524,5.408,5.408,0,0,1-.81122-3.29059V55.38976h0Zm-9.42255-9.356h2.53766V52.174a3.44029,3.44029,0,0,1,2.625-1.51843,2.00717,2.00717,0,0,1,2.02594,1.58087,10.86064,10.86064,0,0,1,.25793,2.81635v5.57446a11.26533,11.26533,0,0,1-.25793,2.82471,2.00754,2.00754,0,0,1-2.02594,1.57251,3.45464,3.45464,0,0,1-2.625-1.54755v1.35614H50.84863V46.03376ZM41.3554,50.82618h2.53345V61.139a7.55688,7.55688,0,0,0,.025.9859,0.581,0.581,0,0,0,.571.59084q0.012,0.00021.02392-.00008a2.21841,2.21841,0,0,0,1.60577-1.18146V50.8262h2.53766v14.007H46.1145V63.30633a4.05935,4.05935,0,0,1-2.8996,1.71814,1.56171,1.56171,0,0,1-1.639-1.04,7.16211,7.16211,0,0,1-.22046-2.08V50.82616Zm-9.2229-4.79242h8.85266v2.64581h-3.041v16.1535H35.11945V48.67956H32.13251v-2.6458Z" fill="#484949"/><path d="M55.75751,60.83111V54.84893c0-1.2655-.37445-1.90948-1.10657-1.90948a1.82034,1.82034,0,0,0-1.26465.61572v8.53644a1.81067,1.81067,0,0,0,1.26465.624C55.38306,62.71563,55.75751,62.09661,55.75751,60.83111Z" fill="#484949"/><path d="M65.334,54.88226q0.00026-1.94357-1.2605-1.94281c-0.84894,0-1.27716.64728-1.27716,1.94281V56.176H65.334V54.88226Z" fill="#484949"/></g></svg>