<?xml version="1.0" encoding="utf-8"?>
<!-- Generator: Adobe Illustrator 16.0.0, SVG Export Plug-In . SVG Version: 6.00 Build 0)  -->
<!DOCTYPE svg PUBLIC "-//W3C//DTD SVG 1.1//EN" "http://www.w3.org/Graphics/SVG/1.1/DTD/svg11.dtd">
<svg version="1.1" id="Layer_1" xmlns="http://www.w3.org/2000/svg" xmlns:xlink="http://www.w3.org/1999/xlink" x="0px" y="0px"
	 width="1801.5px" height="730.569px" viewBox="0 0 1801.5 730.569" enable-background="new 0 0 1801.5 730.569"
	 xml:space="preserve">
<line display="none" fill="none" stroke="#000000" stroke-width="3" stroke-miterlimit="10" x1="902.5" y1="495" x2="902.5" y2="-198"/>
<g>
	<rect x="414.694" y="191.768" fill="none" width="1015.341" height="173.518"/>
	
		<text transform="matrix(1 0 0 1 414.6938 326.7676)" fill="none" stroke="#000000" stroke-width="5" stroke-miterlimit="10" font-family="'BigJohn'" font-size="180">Com  ng</text>
	<rect x="574.076" y="379.803" fill="none" width="884.956" height="173.518"/>
	
		<text transform="matrix(1 0 0 1 574.0757 514.8027)" fill="none" stroke="#000000" stroke-width="5" stroke-miterlimit="10" font-family="'BigJohn'" font-size="180">soon</text>
</g>
<g>
	<path fill-rule="evenodd" clip-rule="evenodd" fill="#FEFEFE" stroke="#000000" stroke-width="3" stroke-miterlimit="10" d="
		M1014.128,215.753c7.53-10.087,11.985-22.605,11.985-36.16c0-33.419-27.093-60.513-60.512-60.513
		c-33.42,0-60.514,27.094-60.514,60.513c0,11.731,3.338,22.685,9.117,31.955c15.854,25.438,23.447,26.042,36.968,58.534h0.633
		c9.363-18.382,12.392-27.181,2.162-48.042c-6.161-12.563-14.354-25.862-16.074-37.739c-2.483-17.085,12.715-29.083,27.708-29.324
		c14.991,0.24,30.19,12.238,27.709,29.324c-1.723,11.877-9.916,25.176-16.077,37.739c-10.229,20.861-7.194,29.66,2.163,48.042h0.443
		C992.627,240.597,996.266,239.679,1014.128,215.753z"/>
	<path fill-rule="evenodd" clip-rule="evenodd" fill="#FEFEFE" stroke="#000000" stroke-width="3" stroke-miterlimit="10" d="
		M973.713,167.424c-2.927-2.384-6.731-3.777-10.52-3.838c-8.442,0.138-16.994,6.893-15.603,16.517
		c0.399,2.748,1.419,5.642,2.722,8.578c-0.234-0.905-0.417-1.801-0.543-2.692c-1.648-11.335,8.438-19.3,18.382-19.453
		C970.029,166.564,971.905,166.872,973.713,167.424z"/>
	<path fill-rule="evenodd" clip-rule="evenodd" fill="#FEFEFE" stroke="#000000" stroke-width="3" stroke-miterlimit="10" d="
		M946.609,324.141h3.726c2.15,3.81,8.174,6.556,15.267,6.556c7.092,0,13.115-2.746,15.265-6.556h3.727c1.866,0,3.4-1.53,3.4-3.401
		v-2.468h2.618c2.426,0,4.404-1.98,4.404-4.406l0,0c0-2.419-1.979-4.403-4.404-4.403h-2.618v-5.871h2.618
		c2.426,0,4.404-1.979,4.404-4.397l0,0c0-2.425-1.979-4.406-4.404-4.406h-2.618v-5.869h2.618c2.426,0,4.404-1.979,4.404-4.405l0,0
		c0-2.417-1.979-4.397-4.404-4.397h-2.618h-44.779h-2.625c-2.423,0-4.402,1.98-4.402,4.397l0,0c0,2.426,1.979,4.405,4.402,4.405
		h2.625v5.869h-2.625c-2.423,0-4.402,1.981-4.402,4.406l0,0c0,2.419,1.979,4.397,4.402,4.397h2.625v5.871h-2.625
		c-2.423,0-4.402,1.984-4.402,4.403l0,0c0,2.426,1.979,4.406,4.402,4.406h2.625v2.468
		C943.214,322.61,944.744,324.141,946.609,324.141z"/>
</g>
</svg>
